<mxfile host="app.diagrams.net" agent="Mozilla/5.0 (X11; Linux x86_64) AppleWebKit/537.36 (KHTML, like Gecko) Chrome/131.0.0.0 Safari/537.36" version="26.0.7" pages="2">
  <diagram name="authentication" id="iyGZp5jmrZklqUcgRUE-">
    <mxGraphModel dx="1434" dy="786" grid="1" gridSize="10" guides="1" tooltips="1" connect="1" arrows="1" fold="1" page="1" pageScale="1" pageWidth="1169" pageHeight="1654" background="none" math="0" shadow="1">
      <root>
        <mxCell id="0" />
        <mxCell id="1" parent="0" />
        <mxCell id="yixODS26HITTkWKWrakN-14" value="" style="rounded=0;whiteSpace=wrap;html=1;strokeWidth=2;fillColor=#d5e8d4;strokeColor=#82b366;" parent="1" vertex="1">
          <mxGeometry x="290" y="230" width="630" height="320" as="geometry" />
        </mxCell>
        <mxCell id="gKhw4Je1qJ6hsbhi2J0A-1" value="" style="rounded=0;whiteSpace=wrap;html=1;strokeWidth=2;fillColor=#fff2cc;strokeColor=#d6b656;" parent="1" vertex="1">
          <mxGeometry x="290" y="870" width="630" height="100" as="geometry" />
        </mxCell>
        <mxCell id="gKhw4Je1qJ6hsbhi2J0A-2" value="&lt;b style=&quot;font-size: 12px;&quot;&gt;&lt;font style=&quot;font-size: 12px;&quot;&gt;Domain&lt;br&gt;&lt;/font&gt;&lt;/b&gt;" style="text;html=1;strokeColor=none;fillColor=none;align=right;verticalAlign=middle;whiteSpace=wrap;rounded=0;fontSize=12;" parent="1" vertex="1">
          <mxGeometry x="820" y="850" width="100" height="20" as="geometry" />
        </mxCell>
        <mxCell id="gKhw4Je1qJ6hsbhi2J0A-14" style="edgeStyle=orthogonalEdgeStyle;rounded=0;orthogonalLoop=1;jettySize=auto;html=1;entryX=0;entryY=0.5;entryDx=0;entryDy=0;" parent="1" source="gKhw4Je1qJ6hsbhi2J0A-3" target="gKhw4Je1qJ6hsbhi2J0A-4" edge="1">
          <mxGeometry relative="1" as="geometry" />
        </mxCell>
        <mxCell id="gKhw4Je1qJ6hsbhi2J0A-15" style="edgeStyle=orthogonalEdgeStyle;rounded=0;orthogonalLoop=1;jettySize=auto;html=1;" parent="1" source="gKhw4Je1qJ6hsbhi2J0A-3" target="gKhw4Je1qJ6hsbhi2J0A-6" edge="1">
          <mxGeometry relative="1" as="geometry" />
        </mxCell>
        <mxCell id="gKhw4Je1qJ6hsbhi2J0A-3" value="Authentication" style="rounded=1;whiteSpace=wrap;html=1;dashed=1;" parent="1" vertex="1">
          <mxGeometry x="535" y="895" width="140" height="50" as="geometry" />
        </mxCell>
        <mxCell id="gKhw4Je1qJ6hsbhi2J0A-4" value="UserAccount" style="rounded=1;whiteSpace=wrap;html=1;glass=0;shadow=0;" parent="1" vertex="1">
          <mxGeometry x="755" y="895" width="140" height="50" as="geometry" />
        </mxCell>
        <mxCell id="gKhw4Je1qJ6hsbhi2J0A-6" value="AuthenticationParams" style="rounded=1;whiteSpace=wrap;html=1;glass=0;shadow=0;" parent="1" vertex="1">
          <mxGeometry x="315" y="895" width="140" height="50" as="geometry" />
        </mxCell>
        <mxCell id="LERfh-It_sYKTg9gHOGU-4" value="" style="rounded=0;whiteSpace=wrap;html=1;strokeWidth=2;fillColor=#f8ceccff;strokeColor=#b85450ff;" parent="1" vertex="1">
          <mxGeometry x="290" y="600" width="630" height="220" as="geometry" />
        </mxCell>
        <mxCell id="LERfh-It_sYKTg9gHOGU-5" value="Application" style="text;html=1;strokeColor=none;fillColor=none;align=right;verticalAlign=middle;whiteSpace=wrap;rounded=0;fontSize=12;fontStyle=1" parent="1" vertex="1">
          <mxGeometry x="820" y="580" width="100" height="20" as="geometry" />
        </mxCell>
        <mxCell id="LERfh-It_sYKTg9gHOGU-7" style="edgeStyle=orthogonalEdgeStyle;rounded=0;orthogonalLoop=1;jettySize=auto;html=1;entryX=0.5;entryY=0;entryDx=0;entryDy=0;" parent="1" source="LERfh-It_sYKTg9gHOGU-6" target="gKhw4Je1qJ6hsbhi2J0A-3" edge="1">
          <mxGeometry relative="1" as="geometry" />
        </mxCell>
        <mxCell id="LERfh-It_sYKTg9gHOGU-15" style="edgeStyle=orthogonalEdgeStyle;rounded=0;orthogonalLoop=1;jettySize=auto;html=1;entryX=0.5;entryY=1;entryDx=0;entryDy=0;exitX=0.38;exitY=0;exitDx=0;exitDy=0;exitPerimeter=0;" parent="1" source="LERfh-It_sYKTg9gHOGU-6" target="LERfh-It_sYKTg9gHOGU-11" edge="1">
          <mxGeometry relative="1" as="geometry">
            <Array as="points">
              <mxPoint x="590" y="750" />
              <mxPoint x="590" y="710" />
              <mxPoint x="528" y="710" />
            </Array>
          </mxGeometry>
        </mxCell>
        <mxCell id="LERfh-It_sYKTg9gHOGU-16" style="edgeStyle=orthogonalEdgeStyle;rounded=0;orthogonalLoop=1;jettySize=auto;html=1;entryX=0.5;entryY=1;entryDx=0;entryDy=0;exitX=0.62;exitY=0;exitDx=0;exitDy=0;exitPerimeter=0;" parent="1" source="LERfh-It_sYKTg9gHOGU-6" target="LERfh-It_sYKTg9gHOGU-12" edge="1">
          <mxGeometry relative="1" as="geometry">
            <Array as="points">
              <mxPoint x="622" y="710" />
              <mxPoint x="682" y="710" />
            </Array>
          </mxGeometry>
        </mxCell>
        <mxCell id="LERfh-It_sYKTg9gHOGU-17" style="edgeStyle=orthogonalEdgeStyle;rounded=0;orthogonalLoop=1;jettySize=auto;html=1;entryX=0.5;entryY=1;entryDx=0;entryDy=0;exitX=0.852;exitY=-0.013;exitDx=0;exitDy=0;exitPerimeter=0;" parent="1" source="LERfh-It_sYKTg9gHOGU-6" target="LERfh-It_sYKTg9gHOGU-13" edge="1">
          <mxGeometry relative="1" as="geometry">
            <Array as="points">
              <mxPoint x="654" y="730" />
              <mxPoint x="835" y="730" />
            </Array>
          </mxGeometry>
        </mxCell>
        <mxCell id="LERfh-It_sYKTg9gHOGU-49" style="edgeStyle=orthogonalEdgeStyle;rounded=0;orthogonalLoop=1;jettySize=auto;html=1;exitX=0.13;exitY=0;exitDx=0;exitDy=0;exitPerimeter=0;" parent="1" source="LERfh-It_sYKTg9gHOGU-6" target="LERfh-It_sYKTg9gHOGU-10" edge="1">
          <mxGeometry relative="1" as="geometry">
            <Array as="points">
              <mxPoint x="553" y="730" />
              <mxPoint x="375" y="730" />
            </Array>
          </mxGeometry>
        </mxCell>
        <mxCell id="LERfh-It_sYKTg9gHOGU-6" value="AuthenticationService" style="rounded=0;whiteSpace=wrap;html=1;glass=0;shadow=0;points=[[0,0,0,0,0],[0,0.25,0,0,0],[0,0.5,0,0,0],[0,0.75,0,0,0],[0,1,0,0,0],[0.13,0,0,0,0],[0.25,0,0,0,0],[0.25,1,0,0,0],[0.38,0,0,0,0],[0.5,0,0,0,0],[0.5,1,0,0,0],[0.62,0,0,0,0],[0.75,0,0,0,0],[0.75,1,0,0,0],[0.88,0,0,0,0],[1,0,0,0,0],[1,0.25,0,0,0],[1,0.5,0,0,0],[1,0.75,0,0,0],[1,1,0,0,0]];" parent="1" vertex="1">
          <mxGeometry x="535" y="750" width="140" height="50" as="geometry" />
        </mxCell>
        <mxCell id="LERfh-It_sYKTg9gHOGU-10" value="UserAuthentication" style="rounded=1;whiteSpace=wrap;html=1;flipH=1;dashed=1;" parent="1" vertex="1">
          <mxGeometry x="315" y="627" width="120" height="50" as="geometry" />
        </mxCell>
        <mxCell id="LERfh-It_sYKTg9gHOGU-11" value="TokenHandler" style="rounded=1;whiteSpace=wrap;html=1;dashed=1;flipH=1;" parent="1" vertex="1">
          <mxGeometry x="468" y="630" width="120" height="50" as="geometry" />
        </mxCell>
        <mxCell id="LERfh-It_sYKTg9gHOGU-12" value="SaveUserToken" style="rounded=1;whiteSpace=wrap;html=1;dashed=1;flipH=1;" parent="1" vertex="1">
          <mxGeometry x="622" y="630" width="120" height="50" as="geometry" />
        </mxCell>
        <mxCell id="LERfh-It_sYKTg9gHOGU-13" value="LoadUser" style="rounded=1;whiteSpace=wrap;html=1;dashed=1;flipH=1;" parent="1" vertex="1">
          <mxGeometry x="775" y="630" width="120" height="50" as="geometry" />
        </mxCell>
        <mxCell id="LERfh-It_sYKTg9gHOGU-26" style="edgeStyle=orthogonalEdgeStyle;rounded=0;orthogonalLoop=1;jettySize=auto;html=1;exitX=0.5;exitY=1;exitDx=0;exitDy=0;exitPerimeter=0;" parent="1" source="u-mnAU9tdNBNZDLYJsx6-3" target="LERfh-It_sYKTg9gHOGU-11" edge="1">
          <mxGeometry relative="1" as="geometry">
            <mxPoint x="528" y="325" as="sourcePoint" />
          </mxGeometry>
        </mxCell>
        <mxCell id="LERfh-It_sYKTg9gHOGU-27" style="edgeStyle=orthogonalEdgeStyle;rounded=0;orthogonalLoop=1;jettySize=auto;html=1;exitX=0.25;exitY=1;exitDx=0;exitDy=0;exitPerimeter=0;" parent="1" source="u-mnAU9tdNBNZDLYJsx6-5" target="LERfh-It_sYKTg9gHOGU-12" edge="1">
          <mxGeometry relative="1" as="geometry">
            <mxPoint x="740" y="325" as="sourcePoint" />
          </mxGeometry>
        </mxCell>
        <mxCell id="LERfh-It_sYKTg9gHOGU-28" style="edgeStyle=orthogonalEdgeStyle;rounded=0;orthogonalLoop=1;jettySize=auto;html=1;exitX=0.75;exitY=1;exitDx=0;exitDy=0;exitPerimeter=0;" parent="1" source="u-mnAU9tdNBNZDLYJsx6-5" target="LERfh-It_sYKTg9gHOGU-13" edge="1">
          <mxGeometry relative="1" as="geometry">
            <mxPoint x="800" y="320" as="sourcePoint" />
          </mxGeometry>
        </mxCell>
        <mxCell id="LERfh-It_sYKTg9gHOGU-25" style="edgeStyle=orthogonalEdgeStyle;rounded=0;orthogonalLoop=1;jettySize=auto;html=1;entryX=0.5;entryY=0;entryDx=0;entryDy=0;exitX=0.5;exitY=1;exitDx=0;exitDy=0;exitPerimeter=0;" parent="1" source="u-mnAU9tdNBNZDLYJsx6-2" target="LERfh-It_sYKTg9gHOGU-10" edge="1">
          <mxGeometry relative="1" as="geometry">
            <mxPoint x="375" y="325" as="sourcePoint" />
          </mxGeometry>
        </mxCell>
        <mxCell id="LERfh-It_sYKTg9gHOGU-30" style="edgeStyle=orthogonalEdgeStyle;rounded=0;orthogonalLoop=1;jettySize=auto;html=1;entryX=0.5;entryY=1;entryDx=0;entryDy=0;exitX=0.5;exitY=0;exitDx=0;exitDy=0;exitPerimeter=0;" parent="1" source="u-mnAU9tdNBNZDLYJsx6-2" target="LERfh-It_sYKTg9gHOGU-29" edge="1">
          <mxGeometry relative="1" as="geometry">
            <mxPoint x="375" y="275" as="sourcePoint" />
          </mxGeometry>
        </mxCell>
        <mxCell id="LERfh-It_sYKTg9gHOGU-29" value="HttpClient" style="rounded=1;whiteSpace=wrap;html=1;dashed=1;flipH=1;" parent="1" vertex="1">
          <mxGeometry x="315" y="390" width="120" height="50" as="geometry" />
        </mxCell>
        <mxCell id="LERfh-It_sYKTg9gHOGU-32" style="edgeStyle=orthogonalEdgeStyle;rounded=0;orthogonalLoop=1;jettySize=auto;html=1;exitX=0.5;exitY=1;exitDx=0;exitDy=0;exitPerimeter=0;" parent="1" source="u-mnAU9tdNBNZDLYJsx6-1" target="LERfh-It_sYKTg9gHOGU-29" edge="1">
          <mxGeometry relative="1" as="geometry">
            <mxPoint x="375" y="140" as="sourcePoint" />
          </mxGeometry>
        </mxCell>
        <mxCell id="LERfh-It_sYKTg9gHOGU-34" style="edgeStyle=orthogonalEdgeStyle;rounded=0;orthogonalLoop=1;jettySize=auto;html=1;entryX=1;entryY=0.5;entryDx=0;entryDy=0;exitX=0;exitY=0.5;exitDx=0;exitDy=0;exitPerimeter=0;" parent="1" source="u-mnAU9tdNBNZDLYJsx6-1" target="LERfh-It_sYKTg9gHOGU-33" edge="1">
          <mxGeometry relative="1" as="geometry">
            <mxPoint x="310" y="115" as="sourcePoint" />
          </mxGeometry>
        </mxCell>
        <mxCell id="LERfh-It_sYKTg9gHOGU-33" value="Axios" style="rounded=0;whiteSpace=wrap;html=1;glass=0;shadow=0;fillColor=#dae8fc;strokeColor=#6c8ebf;" parent="1" vertex="1">
          <mxGeometry x="120" y="250" width="120" height="50" as="geometry" />
        </mxCell>
        <mxCell id="LERfh-It_sYKTg9gHOGU-35" value="PostgreSQL" style="rounded=0;whiteSpace=wrap;html=1;glass=0;shadow=0;fillColor=#dae8fc;strokeColor=#6c8ebf;" parent="1" vertex="1">
          <mxGeometry x="970" y="250" width="120" height="50" as="geometry" />
        </mxCell>
        <mxCell id="LERfh-It_sYKTg9gHOGU-36" value="JsonWebToken" style="rounded=0;whiteSpace=wrap;html=1;glass=0;shadow=0;fillColor=#dae8fc;strokeColor=#6c8ebf;" parent="1" vertex="1">
          <mxGeometry x="120" y="390" width="120" height="50" as="geometry" />
        </mxCell>
        <mxCell id="LERfh-It_sYKTg9gHOGU-66" value="Authentication" style="text;html=1;strokeColor=none;fillColor=none;align=center;verticalAlign=middle;whiteSpace=wrap;rounded=0;fontSize=24;fontStyle=1" parent="1" vertex="1">
          <mxGeometry x="360" y="40" width="450" height="40" as="geometry" />
        </mxCell>
        <mxCell id="LERfh-It_sYKTg9gHOGU-67" value="Dependency Diagram" style="text;html=1;strokeColor=none;fillColor=none;align=center;verticalAlign=middle;whiteSpace=wrap;rounded=0;fontSize=18;fontStyle=1" parent="1" vertex="1">
          <mxGeometry x="365" y="70" width="440" height="40" as="geometry" />
        </mxCell>
        <mxCell id="u-mnAU9tdNBNZDLYJsx6-1" value="AxiosAdapter" style="rounded=0;whiteSpace=wrap;html=1;glass=0;shadow=0;points=[[0,0,0,0,0],[0,0.25,0,0,0],[0,0.5,0,0,0],[0,0.75,0,0,0],[0,1,0,0,0],[0.13,0,0,0,0],[0.25,0,0,0,0],[0.25,1,0,0,0],[0.38,0,0,0,0],[0.5,0,0,0,0],[0.5,1,0,0,0],[0.62,0,0,0,0],[0.75,0,0,0,0],[0.75,1,0,0,0],[0.88,0,0,0,0],[1,0,0,0,0],[1,0.25,0,0,0],[1,0.5,0,0,0],[1,0.75,0,0,0],[1,1,0,0,0]];" parent="1" vertex="1">
          <mxGeometry x="315" y="250" width="120" height="50" as="geometry" />
        </mxCell>
        <mxCell id="u-mnAU9tdNBNZDLYJsx6-2" value="GoogleAuthProvider" style="rounded=0;whiteSpace=wrap;html=1;glass=0;shadow=0;points=[[0,0,0,0,0],[0,0.25,0,0,0],[0,0.5,0,0,0],[0,0.75,0,0,0],[0,1,0,0,0],[0.13,0,0,0,0],[0.25,0,0,0,0],[0.25,1,0,0,0],[0.38,0,0,0,0],[0.5,0,0,0,0],[0.5,1,0,0,0],[0.62,0,0,0,0],[0.75,0,0,0,0],[0.75,1,0,0,0],[0.88,0,0,0,0],[1,0,0,0,0],[1,0.25,0,0,0],[1,0.5,0,0,0],[1,0.75,0,0,0],[1,1,0,0,0]];" parent="1" vertex="1">
          <mxGeometry x="315" y="470" width="120" height="50" as="geometry" />
        </mxCell>
        <mxCell id="u-mnAU9tdNBNZDLYJsx6-3" value="Jwt&lt;span style=&quot;background-color: initial;&quot;&gt;TokenHandler&lt;/span&gt;" style="rounded=0;whiteSpace=wrap;html=1;glass=0;shadow=0;points=[[0,0,0,0,0],[0,0.25,0,0,0],[0,0.5,0,0,0],[0,0.75,0,0,0],[0,1,0,0,0],[0.13,0,0,0,0],[0.25,0,0,0,0],[0.25,1,0,0,0],[0.38,0,0,0,0],[0.5,0,0,0,0],[0.5,1,0,0,0],[0.62,0,0,0,0],[0.75,0,0,0,0],[0.75,1,0,0,0],[0.88,0,0,0,0],[1,0,0,0,0],[1,0.25,0,0,0],[1,0.5,0,0,0],[1,0.75,0,0,0],[1,1,0,0,0]];" parent="1" vertex="1">
          <mxGeometry x="468" y="470" width="120" height="50" as="geometry" />
        </mxCell>
        <mxCell id="yixODS26HITTkWKWrakN-21" style="edgeStyle=orthogonalEdgeStyle;rounded=0;orthogonalLoop=1;jettySize=auto;html=1;" parent="1" source="u-mnAU9tdNBNZDLYJsx6-5" target="yixODS26HITTkWKWrakN-17" edge="1">
          <mxGeometry relative="1" as="geometry" />
        </mxCell>
        <mxCell id="u-mnAU9tdNBNZDLYJsx6-5" value="UserRepository" style="rounded=0;whiteSpace=wrap;html=1;glass=0;shadow=0;points=[[0,0,0,0,0],[0,0.25,0,0,0],[0,0.5,0,0,0],[0,0.75,0,0,0],[0,1,0,0,0],[0.13,0,0,0,0],[0.25,0,0,0,0],[0.25,1,0,0,0],[0.38,0,0,0,0],[0.5,0,0,0,0],[0.5,1,0,0,0],[0.62,0,0,0,0],[0.75,0,0,0,0],[0.75,1,0,0,0],[0.88,0,0,0,0],[1,0,0,0,0],[1,0.25,0,0,0],[1,0.5,0,0,0],[1,0.75,0,0,0],[1,1,0,0,0]];" parent="1" vertex="1">
          <mxGeometry x="680" y="470" width="160" height="50" as="geometry" />
        </mxCell>
        <mxCell id="yixODS26HITTkWKWrakN-15" value="Infra" style="text;html=1;strokeColor=none;fillColor=none;align=right;verticalAlign=middle;whiteSpace=wrap;rounded=0;fontSize=12;fontStyle=1" parent="1" vertex="1">
          <mxGeometry x="805" y="209" width="110" height="20" as="geometry" />
        </mxCell>
        <mxCell id="yixODS26HITTkWKWrakN-18" style="edgeStyle=orthogonalEdgeStyle;rounded=0;orthogonalLoop=1;jettySize=auto;html=1;" parent="1" source="yixODS26HITTkWKWrakN-16" target="yixODS26HITTkWKWrakN-17" edge="1">
          <mxGeometry relative="1" as="geometry" />
        </mxCell>
        <mxCell id="yixODS26HITTkWKWrakN-20" style="edgeStyle=orthogonalEdgeStyle;rounded=0;orthogonalLoop=1;jettySize=auto;html=1;entryX=0;entryY=0.5;entryDx=0;entryDy=0;" parent="1" source="yixODS26HITTkWKWrakN-16" target="LERfh-It_sYKTg9gHOGU-35" edge="1">
          <mxGeometry relative="1" as="geometry" />
        </mxCell>
        <mxCell id="yixODS26HITTkWKWrakN-16" value="PgAdapter" style="rounded=0;whiteSpace=wrap;html=1;glass=0;shadow=0;points=[[0,0,0,0,0],[0,0.25,0,0,0],[0,0.5,0,0,0],[0,0.75,0,0,0],[0,1,0,0,0],[0.13,0,0,0,0],[0.25,0,0,0,0],[0.25,1,0,0,0],[0.38,0,0,0,0],[0.5,0,0,0,0],[0.5,1,0,0,0],[0.62,0,0,0,0],[0.75,0,0,0,0],[0.75,1,0,0,0],[0.88,0,0,0,0],[1,0,0,0,0],[1,0.25,0,0,0],[1,0.5,0,0,0],[1,0.75,0,0,0],[1,1,0,0,0]];" parent="1" vertex="1">
          <mxGeometry x="680" y="250" width="160" height="50" as="geometry" />
        </mxCell>
        <mxCell id="yixODS26HITTkWKWrakN-17" value="DatabaseGateway" style="rounded=1;whiteSpace=wrap;html=1;dashed=1;flipH=1;" parent="1" vertex="1">
          <mxGeometry x="680" y="390" width="160" height="50" as="geometry" />
        </mxCell>
        <mxCell id="LERfh-It_sYKTg9gHOGU-41" style="edgeStyle=orthogonalEdgeStyle;rounded=0;orthogonalLoop=1;jettySize=auto;html=1;entryX=0.5;entryY=0;entryDx=0;entryDy=0;strokeColor=#000000;jumpStyle=arc;jumpSize=12;" parent="1" source="u-mnAU9tdNBNZDLYJsx6-3" target="LERfh-It_sYKTg9gHOGU-36" edge="1">
          <mxGeometry relative="1" as="geometry">
            <mxPoint x="528" y="270" as="sourcePoint" />
            <Array as="points">
              <mxPoint x="528" y="350" />
              <mxPoint x="180" y="350" />
            </Array>
          </mxGeometry>
        </mxCell>
      </root>
    </mxGraphModel>
  </diagram>
  <diagram name="Copy of authentication" id="kRQm_IUrpKz8mfNhFes5">
    <mxGraphModel dx="1434" dy="786" grid="1" gridSize="10" guides="1" tooltips="1" connect="1" arrows="1" fold="1" page="1" pageScale="1" pageWidth="1169" pageHeight="1654" background="none" math="0" shadow="1">
      <root>
        <mxCell id="bGvX8qLekd5CfTEIFus6-0" />
        <mxCell id="bGvX8qLekd5CfTEIFus6-1" parent="bGvX8qLekd5CfTEIFus6-0" />
        <mxCell id="bGvX8qLekd5CfTEIFus6-2" value="" style="rounded=0;whiteSpace=wrap;html=1;strokeWidth=2;fillColor=#d5e8d4;strokeColor=#82b366;" vertex="1" parent="bGvX8qLekd5CfTEIFus6-1">
          <mxGeometry x="290" y="370" width="630" height="180" as="geometry" />
        </mxCell>
        <mxCell id="bGvX8qLekd5CfTEIFus6-3" value="" style="rounded=0;whiteSpace=wrap;html=1;strokeWidth=2;fillColor=#fff2cc;strokeColor=#d6b656;" vertex="1" parent="bGvX8qLekd5CfTEIFus6-1">
          <mxGeometry x="290" y="870" width="630" height="100" as="geometry" />
        </mxCell>
        <mxCell id="bGvX8qLekd5CfTEIFus6-4" value="&lt;b style=&quot;font-size: 12px;&quot;&gt;&lt;font style=&quot;font-size: 12px;&quot;&gt;Domain&lt;br&gt;&lt;/font&gt;&lt;/b&gt;" style="text;html=1;strokeColor=none;fillColor=none;align=right;verticalAlign=middle;whiteSpace=wrap;rounded=0;fontSize=12;" vertex="1" parent="bGvX8qLekd5CfTEIFus6-1">
          <mxGeometry x="820" y="850" width="100" height="20" as="geometry" />
        </mxCell>
        <mxCell id="bGvX8qLekd5CfTEIFus6-5" style="edgeStyle=orthogonalEdgeStyle;rounded=0;orthogonalLoop=1;jettySize=auto;html=1;entryX=0;entryY=0.5;entryDx=0;entryDy=0;" edge="1" parent="bGvX8qLekd5CfTEIFus6-1" source="bGvX8qLekd5CfTEIFus6-7" target="bGvX8qLekd5CfTEIFus6-8">
          <mxGeometry relative="1" as="geometry" />
        </mxCell>
        <mxCell id="bGvX8qLekd5CfTEIFus6-6" style="edgeStyle=orthogonalEdgeStyle;rounded=0;orthogonalLoop=1;jettySize=auto;html=1;" edge="1" parent="bGvX8qLekd5CfTEIFus6-1" source="bGvX8qLekd5CfTEIFus6-7" target="bGvX8qLekd5CfTEIFus6-9">
          <mxGeometry relative="1" as="geometry" />
        </mxCell>
        <mxCell id="bGvX8qLekd5CfTEIFus6-7" value="Authentication" style="rounded=1;whiteSpace=wrap;html=1;dashed=1;" vertex="1" parent="bGvX8qLekd5CfTEIFus6-1">
          <mxGeometry x="535" y="895" width="140" height="50" as="geometry" />
        </mxCell>
        <mxCell id="bGvX8qLekd5CfTEIFus6-8" value="UserAccount" style="rounded=1;whiteSpace=wrap;html=1;glass=0;shadow=0;" vertex="1" parent="bGvX8qLekd5CfTEIFus6-1">
          <mxGeometry x="755" y="895" width="140" height="50" as="geometry" />
        </mxCell>
        <mxCell id="bGvX8qLekd5CfTEIFus6-9" value="AuthenticationParams" style="rounded=1;whiteSpace=wrap;html=1;glass=0;shadow=0;" vertex="1" parent="bGvX8qLekd5CfTEIFus6-1">
          <mxGeometry x="315" y="895" width="140" height="50" as="geometry" />
        </mxCell>
        <mxCell id="bGvX8qLekd5CfTEIFus6-10" value="" style="rounded=0;whiteSpace=wrap;html=1;strokeWidth=2;fillColor=#d5e8d4;strokeColor=#82b366;fontSize=10;" vertex="1" parent="bGvX8qLekd5CfTEIFus6-1">
          <mxGeometry x="290" y="1026" width="630" height="90" as="geometry" />
        </mxCell>
        <mxCell id="bGvX8qLekd5CfTEIFus6-11" value="&lt;b style=&quot;font-size: 12px;&quot;&gt;&lt;font style=&quot;font-size: 12px;&quot;&gt;Application / Controllers&lt;/font&gt;&lt;/b&gt;" style="text;html=1;strokeColor=none;fillColor=none;align=right;verticalAlign=middle;whiteSpace=wrap;rounded=0;fontSize=12;" vertex="1" parent="bGvX8qLekd5CfTEIFus6-1">
          <mxGeometry x="760" y="1006" width="160" height="20" as="geometry" />
        </mxCell>
        <mxCell id="bGvX8qLekd5CfTEIFus6-12" style="edgeStyle=orthogonalEdgeStyle;rounded=0;orthogonalLoop=1;jettySize=auto;html=1;entryX=0;entryY=0.5;entryDx=0;entryDy=0;" edge="1" parent="bGvX8qLekd5CfTEIFus6-1" source="bGvX8qLekd5CfTEIFus6-15" target="bGvX8qLekd5CfTEIFus6-16">
          <mxGeometry relative="1" as="geometry" />
        </mxCell>
        <mxCell id="bGvX8qLekd5CfTEIFus6-13" style="edgeStyle=orthogonalEdgeStyle;rounded=0;orthogonalLoop=1;jettySize=auto;html=1;entryX=1;entryY=0.5;entryDx=0;entryDy=0;" edge="1" parent="bGvX8qLekd5CfTEIFus6-1" source="bGvX8qLekd5CfTEIFus6-15" target="bGvX8qLekd5CfTEIFus6-17">
          <mxGeometry relative="1" as="geometry" />
        </mxCell>
        <mxCell id="bGvX8qLekd5CfTEIFus6-14" style="edgeStyle=orthogonalEdgeStyle;rounded=0;orthogonalLoop=1;jettySize=auto;html=1;entryX=0.5;entryY=1;entryDx=0;entryDy=0;" edge="1" parent="bGvX8qLekd5CfTEIFus6-1" source="bGvX8qLekd5CfTEIFus6-15" target="bGvX8qLekd5CfTEIFus6-7">
          <mxGeometry relative="1" as="geometry" />
        </mxCell>
        <mxCell id="bGvX8qLekd5CfTEIFus6-15" value="LoginController" style="rounded=0;whiteSpace=wrap;html=1;" vertex="1" parent="bGvX8qLekd5CfTEIFus6-1">
          <mxGeometry x="535" y="1046" width="140" height="50" as="geometry" />
        </mxCell>
        <mxCell id="bGvX8qLekd5CfTEIFus6-16" value="Controller" style="rounded=1;whiteSpace=wrap;html=1;dashed=1;" vertex="1" parent="bGvX8qLekd5CfTEIFus6-1">
          <mxGeometry x="755" y="1046" width="140" height="50" as="geometry" />
        </mxCell>
        <mxCell id="bGvX8qLekd5CfTEIFus6-17" value="Validator" style="rounded=1;whiteSpace=wrap;html=1;dashed=1;" vertex="1" parent="bGvX8qLekd5CfTEIFus6-1">
          <mxGeometry x="315" y="1046" width="140" height="50" as="geometry" />
        </mxCell>
        <mxCell id="bGvX8qLekd5CfTEIFus6-18" value="" style="rounded=0;whiteSpace=wrap;html=1;strokeWidth=2;fillColor=#f8ceccff;strokeColor=#b85450ff;" vertex="1" parent="bGvX8qLekd5CfTEIFus6-1">
          <mxGeometry x="290" y="600" width="630" height="220" as="geometry" />
        </mxCell>
        <mxCell id="bGvX8qLekd5CfTEIFus6-19" value="Application" style="text;html=1;strokeColor=none;fillColor=none;align=right;verticalAlign=middle;whiteSpace=wrap;rounded=0;fontSize=12;fontStyle=1" vertex="1" parent="bGvX8qLekd5CfTEIFus6-1">
          <mxGeometry x="820" y="580" width="100" height="20" as="geometry" />
        </mxCell>
        <mxCell id="bGvX8qLekd5CfTEIFus6-20" style="edgeStyle=orthogonalEdgeStyle;rounded=0;orthogonalLoop=1;jettySize=auto;html=1;entryX=0.5;entryY=0;entryDx=0;entryDy=0;" edge="1" parent="bGvX8qLekd5CfTEIFus6-1" source="bGvX8qLekd5CfTEIFus6-25" target="bGvX8qLekd5CfTEIFus6-7">
          <mxGeometry relative="1" as="geometry" />
        </mxCell>
        <mxCell id="bGvX8qLekd5CfTEIFus6-21" style="edgeStyle=orthogonalEdgeStyle;rounded=0;orthogonalLoop=1;jettySize=auto;html=1;entryX=0.5;entryY=1;entryDx=0;entryDy=0;exitX=0.38;exitY=0;exitDx=0;exitDy=0;exitPerimeter=0;" edge="1" parent="bGvX8qLekd5CfTEIFus6-1" source="bGvX8qLekd5CfTEIFus6-25" target="bGvX8qLekd5CfTEIFus6-27">
          <mxGeometry relative="1" as="geometry">
            <Array as="points">
              <mxPoint x="590" y="750" />
              <mxPoint x="590" y="710" />
              <mxPoint x="528" y="710" />
            </Array>
          </mxGeometry>
        </mxCell>
        <mxCell id="bGvX8qLekd5CfTEIFus6-22" style="edgeStyle=orthogonalEdgeStyle;rounded=0;orthogonalLoop=1;jettySize=auto;html=1;entryX=0.5;entryY=1;entryDx=0;entryDy=0;exitX=0.62;exitY=0;exitDx=0;exitDy=0;exitPerimeter=0;" edge="1" parent="bGvX8qLekd5CfTEIFus6-1" source="bGvX8qLekd5CfTEIFus6-25" target="bGvX8qLekd5CfTEIFus6-28">
          <mxGeometry relative="1" as="geometry">
            <Array as="points">
              <mxPoint x="622" y="710" />
              <mxPoint x="682" y="710" />
            </Array>
          </mxGeometry>
        </mxCell>
        <mxCell id="bGvX8qLekd5CfTEIFus6-23" style="edgeStyle=orthogonalEdgeStyle;rounded=0;orthogonalLoop=1;jettySize=auto;html=1;entryX=0.5;entryY=1;entryDx=0;entryDy=0;exitX=0.852;exitY=-0.013;exitDx=0;exitDy=0;exitPerimeter=0;" edge="1" parent="bGvX8qLekd5CfTEIFus6-1" source="bGvX8qLekd5CfTEIFus6-25" target="bGvX8qLekd5CfTEIFus6-29">
          <mxGeometry relative="1" as="geometry">
            <Array as="points">
              <mxPoint x="654" y="730" />
              <mxPoint x="835" y="730" />
            </Array>
          </mxGeometry>
        </mxCell>
        <mxCell id="bGvX8qLekd5CfTEIFus6-24" style="edgeStyle=orthogonalEdgeStyle;rounded=0;orthogonalLoop=1;jettySize=auto;html=1;exitX=0.13;exitY=0;exitDx=0;exitDy=0;exitPerimeter=0;" edge="1" parent="bGvX8qLekd5CfTEIFus6-1" source="bGvX8qLekd5CfTEIFus6-25" target="bGvX8qLekd5CfTEIFus6-26">
          <mxGeometry relative="1" as="geometry">
            <Array as="points">
              <mxPoint x="553" y="730" />
              <mxPoint x="375" y="730" />
            </Array>
          </mxGeometry>
        </mxCell>
        <mxCell id="bGvX8qLekd5CfTEIFus6-25" value="AuthenticationService" style="rounded=0;whiteSpace=wrap;html=1;glass=0;shadow=0;points=[[0,0,0,0,0],[0,0.25,0,0,0],[0,0.5,0,0,0],[0,0.75,0,0,0],[0,1,0,0,0],[0.13,0,0,0,0],[0.25,0,0,0,0],[0.25,1,0,0,0],[0.38,0,0,0,0],[0.5,0,0,0,0],[0.5,1,0,0,0],[0.62,0,0,0,0],[0.75,0,0,0,0],[0.75,1,0,0,0],[0.88,0,0,0,0],[1,0,0,0,0],[1,0.25,0,0,0],[1,0.5,0,0,0],[1,0.75,0,0,0],[1,1,0,0,0]];" vertex="1" parent="bGvX8qLekd5CfTEIFus6-1">
          <mxGeometry x="535" y="750" width="140" height="50" as="geometry" />
        </mxCell>
        <mxCell id="bGvX8qLekd5CfTEIFus6-26" value="UserAuthentication" style="rounded=1;whiteSpace=wrap;html=1;flipH=1;dashed=1;" vertex="1" parent="bGvX8qLekd5CfTEIFus6-1">
          <mxGeometry x="315" y="627" width="120" height="50" as="geometry" />
        </mxCell>
        <mxCell id="bGvX8qLekd5CfTEIFus6-27" value="TokenHandler" style="rounded=1;whiteSpace=wrap;html=1;dashed=1;flipH=1;" vertex="1" parent="bGvX8qLekd5CfTEIFus6-1">
          <mxGeometry x="468" y="630" width="120" height="50" as="geometry" />
        </mxCell>
        <mxCell id="bGvX8qLekd5CfTEIFus6-28" value="SaveUserToken" style="rounded=1;whiteSpace=wrap;html=1;dashed=1;flipH=1;" vertex="1" parent="bGvX8qLekd5CfTEIFus6-1">
          <mxGeometry x="622" y="630" width="120" height="50" as="geometry" />
        </mxCell>
        <mxCell id="bGvX8qLekd5CfTEIFus6-29" value="LoadUser" style="rounded=1;whiteSpace=wrap;html=1;dashed=1;flipH=1;" vertex="1" parent="bGvX8qLekd5CfTEIFus6-1">
          <mxGeometry x="775" y="630" width="120" height="50" as="geometry" />
        </mxCell>
        <mxCell id="bGvX8qLekd5CfTEIFus6-30" style="edgeStyle=orthogonalEdgeStyle;rounded=0;orthogonalLoop=1;jettySize=auto;html=1;exitX=0.5;exitY=1;exitDx=0;exitDy=0;exitPerimeter=0;" edge="1" parent="bGvX8qLekd5CfTEIFus6-1" source="bGvX8qLekd5CfTEIFus6-58" target="bGvX8qLekd5CfTEIFus6-27">
          <mxGeometry relative="1" as="geometry">
            <mxPoint x="528" y="325" as="sourcePoint" />
          </mxGeometry>
        </mxCell>
        <mxCell id="bGvX8qLekd5CfTEIFus6-31" style="edgeStyle=orthogonalEdgeStyle;rounded=0;orthogonalLoop=1;jettySize=auto;html=1;exitX=0.25;exitY=1;exitDx=0;exitDy=0;exitPerimeter=0;" edge="1" parent="bGvX8qLekd5CfTEIFus6-1" source="bGvX8qLekd5CfTEIFus6-60" target="bGvX8qLekd5CfTEIFus6-28">
          <mxGeometry relative="1" as="geometry">
            <mxPoint x="740" y="325" as="sourcePoint" />
          </mxGeometry>
        </mxCell>
        <mxCell id="bGvX8qLekd5CfTEIFus6-32" style="edgeStyle=orthogonalEdgeStyle;rounded=0;orthogonalLoop=1;jettySize=auto;html=1;exitX=0.75;exitY=1;exitDx=0;exitDy=0;exitPerimeter=0;" edge="1" parent="bGvX8qLekd5CfTEIFus6-1" source="bGvX8qLekd5CfTEIFus6-60" target="bGvX8qLekd5CfTEIFus6-29">
          <mxGeometry relative="1" as="geometry">
            <mxPoint x="800" y="320" as="sourcePoint" />
          </mxGeometry>
        </mxCell>
        <mxCell id="bGvX8qLekd5CfTEIFus6-33" style="edgeStyle=orthogonalEdgeStyle;rounded=0;orthogonalLoop=1;jettySize=auto;html=1;entryX=0.5;entryY=0;entryDx=0;entryDy=0;exitX=0.5;exitY=1;exitDx=0;exitDy=0;exitPerimeter=0;" edge="1" parent="bGvX8qLekd5CfTEIFus6-1" source="bGvX8qLekd5CfTEIFus6-57" target="bGvX8qLekd5CfTEIFus6-26">
          <mxGeometry relative="1" as="geometry">
            <mxPoint x="375" y="325" as="sourcePoint" />
          </mxGeometry>
        </mxCell>
        <mxCell id="bGvX8qLekd5CfTEIFus6-34" style="edgeStyle=orthogonalEdgeStyle;rounded=0;orthogonalLoop=1;jettySize=auto;html=1;entryX=0.5;entryY=1;entryDx=0;entryDy=0;exitX=0.5;exitY=0;exitDx=0;exitDy=0;exitPerimeter=0;" edge="1" parent="bGvX8qLekd5CfTEIFus6-1" source="bGvX8qLekd5CfTEIFus6-57" target="bGvX8qLekd5CfTEIFus6-35">
          <mxGeometry relative="1" as="geometry">
            <mxPoint x="375" y="275" as="sourcePoint" />
          </mxGeometry>
        </mxCell>
        <mxCell id="bGvX8qLekd5CfTEIFus6-35" value="HttpClient" style="rounded=1;whiteSpace=wrap;html=1;dashed=1;flipH=1;" vertex="1" parent="bGvX8qLekd5CfTEIFus6-1">
          <mxGeometry x="315" y="390" width="120" height="50" as="geometry" />
        </mxCell>
        <mxCell id="bGvX8qLekd5CfTEIFus6-36" style="edgeStyle=orthogonalEdgeStyle;rounded=0;orthogonalLoop=1;jettySize=auto;html=1;exitX=0.5;exitY=1;exitDx=0;exitDy=0;exitPerimeter=0;" edge="1" parent="bGvX8qLekd5CfTEIFus6-1" source="bGvX8qLekd5CfTEIFus6-56" target="bGvX8qLekd5CfTEIFus6-35">
          <mxGeometry relative="1" as="geometry">
            <mxPoint x="375" y="140" as="sourcePoint" />
          </mxGeometry>
        </mxCell>
        <mxCell id="bGvX8qLekd5CfTEIFus6-37" style="edgeStyle=orthogonalEdgeStyle;rounded=0;orthogonalLoop=1;jettySize=auto;html=1;entryX=1;entryY=0.5;entryDx=0;entryDy=0;exitX=0;exitY=0.5;exitDx=0;exitDy=0;exitPerimeter=0;" edge="1" parent="bGvX8qLekd5CfTEIFus6-1" source="bGvX8qLekd5CfTEIFus6-56" target="bGvX8qLekd5CfTEIFus6-38">
          <mxGeometry relative="1" as="geometry">
            <mxPoint x="310" y="115" as="sourcePoint" />
          </mxGeometry>
        </mxCell>
        <mxCell id="bGvX8qLekd5CfTEIFus6-38" value="Axios" style="rounded=0;whiteSpace=wrap;html=1;glass=0;shadow=0;fillColor=#dae8fc;strokeColor=#6c8ebf;" vertex="1" parent="bGvX8qLekd5CfTEIFus6-1">
          <mxGeometry x="120" y="250" width="120" height="50" as="geometry" />
        </mxCell>
        <mxCell id="bGvX8qLekd5CfTEIFus6-39" value="PostgreSQL" style="rounded=0;whiteSpace=wrap;html=1;glass=0;shadow=0;fillColor=#dae8fc;strokeColor=#6c8ebf;" vertex="1" parent="bGvX8qLekd5CfTEIFus6-1">
          <mxGeometry x="970" y="250" width="120" height="50" as="geometry" />
        </mxCell>
        <mxCell id="bGvX8qLekd5CfTEIFus6-40" value="JsonWebToken" style="rounded=0;whiteSpace=wrap;html=1;glass=0;shadow=0;fillColor=#dae8fc;strokeColor=#6c8ebf;" vertex="1" parent="bGvX8qLekd5CfTEIFus6-1">
          <mxGeometry x="120" y="390" width="120" height="50" as="geometry" />
        </mxCell>
        <mxCell id="bGvX8qLekd5CfTEIFus6-41" value="" style="rounded=0;whiteSpace=wrap;html=1;strokeWidth=2;fillColor=#d5e8d4;strokeColor=#82b366;" vertex="1" parent="bGvX8qLekd5CfTEIFus6-1">
          <mxGeometry x="80" y="1026" width="185" height="270" as="geometry" />
        </mxCell>
        <mxCell id="bGvX8qLekd5CfTEIFus6-42" value="&lt;b style=&quot;font-size: 12px;&quot;&gt;&lt;font style=&quot;font-size: 12px;&quot;&gt;Application / Validators&lt;/font&gt;&lt;/b&gt;" style="text;html=1;strokeColor=none;fillColor=none;align=right;verticalAlign=middle;whiteSpace=wrap;rounded=0;fontSize=12;" vertex="1" parent="bGvX8qLekd5CfTEIFus6-1">
          <mxGeometry x="100" y="1006" width="165" height="20" as="geometry" />
        </mxCell>
        <mxCell id="bGvX8qLekd5CfTEIFus6-43" value="RequireFieldValidator" style="rounded=0;whiteSpace=wrap;html=1;flipH=0;" vertex="1" parent="bGvX8qLekd5CfTEIFus6-1">
          <mxGeometry x="100" y="1106" width="140" height="50" as="geometry" />
        </mxCell>
        <mxCell id="bGvX8qLekd5CfTEIFus6-44" value="EmailValidator" style="rounded=0;whiteSpace=wrap;html=1;glass=0;shadow=0;flipH=0;" vertex="1" parent="bGvX8qLekd5CfTEIFus6-1">
          <mxGeometry x="100" y="1226" width="140" height="50" as="geometry" />
        </mxCell>
        <mxCell id="bGvX8qLekd5CfTEIFus6-45" value="CompositeValidator" style="rounded=0;whiteSpace=wrap;html=1;glass=0;shadow=0;flipH=0;" vertex="1" parent="bGvX8qLekd5CfTEIFus6-1">
          <mxGeometry x="100" y="1046" width="140" height="50" as="geometry" />
        </mxCell>
        <mxCell id="bGvX8qLekd5CfTEIFus6-46" style="edgeStyle=orthogonalEdgeStyle;rounded=0;orthogonalLoop=1;jettySize=auto;html=1;entryX=0.5;entryY=1;entryDx=0;entryDy=0;exitX=1;exitY=0.5;exitDx=0;exitDy=0;" edge="1" parent="bGvX8qLekd5CfTEIFus6-1" source="bGvX8qLekd5CfTEIFus6-41" target="bGvX8qLekd5CfTEIFus6-17">
          <mxGeometry relative="1" as="geometry">
            <Array as="points">
              <mxPoint x="385" y="1161" />
            </Array>
          </mxGeometry>
        </mxCell>
        <mxCell id="bGvX8qLekd5CfTEIFus6-47" value="CompareFieldValidator" style="rounded=0;whiteSpace=wrap;html=1;flipH=0;" vertex="1" parent="bGvX8qLekd5CfTEIFus6-1">
          <mxGeometry x="100" y="1166" width="140" height="50" as="geometry" />
        </mxCell>
        <mxCell id="bGvX8qLekd5CfTEIFus6-48" value="" style="rounded=0;whiteSpace=wrap;html=1;strokeWidth=2;fillColor=#dae8fc;strokeColor=#6c8ebf;" vertex="1" parent="bGvX8qLekd5CfTEIFus6-1">
          <mxGeometry x="290" y="1189" width="630" height="107" as="geometry" />
        </mxCell>
        <mxCell id="bGvX8qLekd5CfTEIFus6-49" value="&lt;b style=&quot;font-size: 12px;&quot;&gt;&lt;font style=&quot;font-size: 12px;&quot;&gt;Infra&lt;/font&gt;&lt;/b&gt;" style="text;html=1;strokeColor=none;fillColor=none;align=right;verticalAlign=middle;whiteSpace=wrap;rounded=0;fontSize=12;" vertex="1" parent="bGvX8qLekd5CfTEIFus6-1">
          <mxGeometry x="820" y="1169" width="100" height="20" as="geometry" />
        </mxCell>
        <mxCell id="bGvX8qLekd5CfTEIFus6-50" style="edgeStyle=orthogonalEdgeStyle;rounded=0;orthogonalLoop=1;jettySize=auto;html=1;entryX=0.5;entryY=1;entryDx=0;entryDy=0;" edge="1" parent="bGvX8qLekd5CfTEIFus6-1" source="bGvX8qLekd5CfTEIFus6-52" target="bGvX8qLekd5CfTEIFus6-16">
          <mxGeometry relative="1" as="geometry" />
        </mxCell>
        <mxCell id="bGvX8qLekd5CfTEIFus6-51" style="edgeStyle=orthogonalEdgeStyle;rounded=0;orthogonalLoop=1;jettySize=auto;html=1;" edge="1" parent="bGvX8qLekd5CfTEIFus6-1" source="bGvX8qLekd5CfTEIFus6-52" target="bGvX8qLekd5CfTEIFus6-53">
          <mxGeometry relative="1" as="geometry" />
        </mxCell>
        <mxCell id="bGvX8qLekd5CfTEIFus6-52" value="ExpressRouteAdapter" style="rounded=0;whiteSpace=wrap;html=1;flipH=1;" vertex="1" parent="bGvX8qLekd5CfTEIFus6-1">
          <mxGeometry x="755" y="1216" width="140" height="50" as="geometry" />
        </mxCell>
        <mxCell id="bGvX8qLekd5CfTEIFus6-53" value="Express" style="rounded=0;whiteSpace=wrap;html=1;glass=0;shadow=0;fillColor=#e1d5e7;strokeColor=#9673a6;" vertex="1" parent="bGvX8qLekd5CfTEIFus6-1">
          <mxGeometry x="970" y="1216" width="120" height="50" as="geometry" />
        </mxCell>
        <mxCell id="bGvX8qLekd5CfTEIFus6-54" value="Authentication" style="text;html=1;strokeColor=none;fillColor=none;align=center;verticalAlign=middle;whiteSpace=wrap;rounded=0;fontSize=24;fontStyle=1" vertex="1" parent="bGvX8qLekd5CfTEIFus6-1">
          <mxGeometry x="360" y="40" width="450" height="40" as="geometry" />
        </mxCell>
        <mxCell id="bGvX8qLekd5CfTEIFus6-55" value="Dependency Diagram" style="text;html=1;strokeColor=none;fillColor=none;align=center;verticalAlign=middle;whiteSpace=wrap;rounded=0;fontSize=18;fontStyle=1" vertex="1" parent="bGvX8qLekd5CfTEIFus6-1">
          <mxGeometry x="365" y="70" width="440" height="40" as="geometry" />
        </mxCell>
        <mxCell id="bGvX8qLekd5CfTEIFus6-56" value="AxiosAdapter" style="rounded=0;whiteSpace=wrap;html=1;glass=0;shadow=0;points=[[0,0,0,0,0],[0,0.25,0,0,0],[0,0.5,0,0,0],[0,0.75,0,0,0],[0,1,0,0,0],[0.13,0,0,0,0],[0.25,0,0,0,0],[0.25,1,0,0,0],[0.38,0,0,0,0],[0.5,0,0,0,0],[0.5,1,0,0,0],[0.62,0,0,0,0],[0.75,0,0,0,0],[0.75,1,0,0,0],[0.88,0,0,0,0],[1,0,0,0,0],[1,0.25,0,0,0],[1,0.5,0,0,0],[1,0.75,0,0,0],[1,1,0,0,0]];" vertex="1" parent="bGvX8qLekd5CfTEIFus6-1">
          <mxGeometry x="315" y="250" width="120" height="50" as="geometry" />
        </mxCell>
        <mxCell id="bGvX8qLekd5CfTEIFus6-57" value="GoogleAuthProvider" style="rounded=0;whiteSpace=wrap;html=1;glass=0;shadow=0;points=[[0,0,0,0,0],[0,0.25,0,0,0],[0,0.5,0,0,0],[0,0.75,0,0,0],[0,1,0,0,0],[0.13,0,0,0,0],[0.25,0,0,0,0],[0.25,1,0,0,0],[0.38,0,0,0,0],[0.5,0,0,0,0],[0.5,1,0,0,0],[0.62,0,0,0,0],[0.75,0,0,0,0],[0.75,1,0,0,0],[0.88,0,0,0,0],[1,0,0,0,0],[1,0.25,0,0,0],[1,0.5,0,0,0],[1,0.75,0,0,0],[1,1,0,0,0]];" vertex="1" parent="bGvX8qLekd5CfTEIFus6-1">
          <mxGeometry x="315" y="470" width="120" height="50" as="geometry" />
        </mxCell>
        <mxCell id="bGvX8qLekd5CfTEIFus6-58" value="Jwt&lt;span style=&quot;background-color: initial;&quot;&gt;TokenHandler&lt;/span&gt;" style="rounded=0;whiteSpace=wrap;html=1;glass=0;shadow=0;points=[[0,0,0,0,0],[0,0.25,0,0,0],[0,0.5,0,0,0],[0,0.75,0,0,0],[0,1,0,0,0],[0.13,0,0,0,0],[0.25,0,0,0,0],[0.25,1,0,0,0],[0.38,0,0,0,0],[0.5,0,0,0,0],[0.5,1,0,0,0],[0.62,0,0,0,0],[0.75,0,0,0,0],[0.75,1,0,0,0],[0.88,0,0,0,0],[1,0,0,0,0],[1,0.25,0,0,0],[1,0.5,0,0,0],[1,0.75,0,0,0],[1,1,0,0,0]];" vertex="1" parent="bGvX8qLekd5CfTEIFus6-1">
          <mxGeometry x="468" y="470" width="120" height="50" as="geometry" />
        </mxCell>
        <mxCell id="bGvX8qLekd5CfTEIFus6-59" style="edgeStyle=orthogonalEdgeStyle;rounded=0;orthogonalLoop=1;jettySize=auto;html=1;" edge="1" parent="bGvX8qLekd5CfTEIFus6-1" source="bGvX8qLekd5CfTEIFus6-60" target="bGvX8qLekd5CfTEIFus6-65">
          <mxGeometry relative="1" as="geometry" />
        </mxCell>
        <mxCell id="bGvX8qLekd5CfTEIFus6-60" value="UserRepository" style="rounded=0;whiteSpace=wrap;html=1;glass=0;shadow=0;points=[[0,0,0,0,0],[0,0.25,0,0,0],[0,0.5,0,0,0],[0,0.75,0,0,0],[0,1,0,0,0],[0.13,0,0,0,0],[0.25,0,0,0,0],[0.25,1,0,0,0],[0.38,0,0,0,0],[0.5,0,0,0,0],[0.5,1,0,0,0],[0.62,0,0,0,0],[0.75,0,0,0,0],[0.75,1,0,0,0],[0.88,0,0,0,0],[1,0,0,0,0],[1,0.25,0,0,0],[1,0.5,0,0,0],[1,0.75,0,0,0],[1,1,0,0,0]];" vertex="1" parent="bGvX8qLekd5CfTEIFus6-1">
          <mxGeometry x="680" y="470" width="160" height="50" as="geometry" />
        </mxCell>
        <mxCell id="bGvX8qLekd5CfTEIFus6-61" value="Infra" style="text;html=1;strokeColor=none;fillColor=none;align=right;verticalAlign=middle;whiteSpace=wrap;rounded=0;fontSize=12;fontStyle=1" vertex="1" parent="bGvX8qLekd5CfTEIFus6-1">
          <mxGeometry x="770" y="350" width="150" height="20" as="geometry" />
        </mxCell>
        <mxCell id="bGvX8qLekd5CfTEIFus6-62" style="edgeStyle=orthogonalEdgeStyle;rounded=0;orthogonalLoop=1;jettySize=auto;html=1;" edge="1" parent="bGvX8qLekd5CfTEIFus6-1" source="bGvX8qLekd5CfTEIFus6-64" target="bGvX8qLekd5CfTEIFus6-65">
          <mxGeometry relative="1" as="geometry" />
        </mxCell>
        <mxCell id="bGvX8qLekd5CfTEIFus6-63" style="edgeStyle=orthogonalEdgeStyle;rounded=0;orthogonalLoop=1;jettySize=auto;html=1;entryX=0;entryY=0.5;entryDx=0;entryDy=0;" edge="1" parent="bGvX8qLekd5CfTEIFus6-1" source="bGvX8qLekd5CfTEIFus6-64" target="bGvX8qLekd5CfTEIFus6-39">
          <mxGeometry relative="1" as="geometry" />
        </mxCell>
        <mxCell id="bGvX8qLekd5CfTEIFus6-64" value="PgAdapter" style="rounded=0;whiteSpace=wrap;html=1;glass=0;shadow=0;points=[[0,0,0,0,0],[0,0.25,0,0,0],[0,0.5,0,0,0],[0,0.75,0,0,0],[0,1,0,0,0],[0.13,0,0,0,0],[0.25,0,0,0,0],[0.25,1,0,0,0],[0.38,0,0,0,0],[0.5,0,0,0,0],[0.5,1,0,0,0],[0.62,0,0,0,0],[0.75,0,0,0,0],[0.75,1,0,0,0],[0.88,0,0,0,0],[1,0,0,0,0],[1,0.25,0,0,0],[1,0.5,0,0,0],[1,0.75,0,0,0],[1,1,0,0,0]];" vertex="1" parent="bGvX8qLekd5CfTEIFus6-1">
          <mxGeometry x="680" y="250" width="160" height="50" as="geometry" />
        </mxCell>
        <mxCell id="bGvX8qLekd5CfTEIFus6-65" value="DatabaseGateway" style="rounded=1;whiteSpace=wrap;html=1;dashed=1;flipH=1;" vertex="1" parent="bGvX8qLekd5CfTEIFus6-1">
          <mxGeometry x="680" y="390" width="160" height="50" as="geometry" />
        </mxCell>
        <mxCell id="bGvX8qLekd5CfTEIFus6-66" style="edgeStyle=orthogonalEdgeStyle;rounded=0;orthogonalLoop=1;jettySize=auto;html=1;entryX=0.5;entryY=0;entryDx=0;entryDy=0;strokeColor=#000000;jumpStyle=arc;jumpSize=12;" edge="1" parent="bGvX8qLekd5CfTEIFus6-1" source="bGvX8qLekd5CfTEIFus6-58" target="bGvX8qLekd5CfTEIFus6-40">
          <mxGeometry relative="1" as="geometry">
            <mxPoint x="528" y="270" as="sourcePoint" />
            <Array as="points">
              <mxPoint x="528" y="350" />
              <mxPoint x="180" y="350" />
            </Array>
          </mxGeometry>
        </mxCell>
      </root>
    </mxGraphModel>
  </diagram>
</mxfile>
